<svg width="10" height="19" viewBox="0 0 10 19" fill="none" xmlns="http://www.w3.org/2000/svg">
<g id="Group 5">
<g id="Group">
<g id="Group_2">
<path id="Vector" d="M8.44143 11.9364C8.44143 11.6292 8.44143 3.46045 8.44143 3.05037C8.44143 1.73588 7.37198 0.666504 6.05753 0.666504C4.74332 0.666504 3.67411 1.73588 3.67411 3.05033C3.67411 3.49662 3.67411 11.6417 3.67411 11.9364C1.24284 14.1225 2.79412 18.1665 6.05757 18.1665C9.31964 18.1665 10.8727 14.1228 8.44143 11.9364ZM7.16096 8.49242H4.95462V3.05033C4.95462 2.44193 5.44941 1.94698 6.05753 1.94698C6.66593 1.94698 7.16092 2.44193 7.16092 3.05033V8.49242H7.16096Z" fill="#C1ECFB"/>
</g>
</g>
<g id="Group_3">
<g id="Group_4">
<path id="Vector_2" d="M2.04962 8.77637H0.973506C0.619917 8.77637 0.333252 9.06303 0.333252 9.41662C0.333252 9.77021 0.619917 10.0569 0.973506 10.0569H2.04962C2.40321 10.0569 2.68987 9.77021 2.68987 9.41662C2.68984 9.06303 2.40317 8.77637 2.04962 8.77637Z" fill="#C1ECFB"/>
</g>
</g>
<g id="Group_5">
<g id="Group_6">
<path id="Vector_3" d="M2.04962 6.66748H0.973506C0.619917 6.66748 0.333252 6.95415 0.333252 7.30773C0.333252 7.66132 0.619917 7.94799 0.973506 7.94799H2.04962C2.40321 7.94799 2.68987 7.66132 2.68987 7.30773C2.68984 6.95415 2.40317 6.66748 2.04962 6.66748Z" fill="#C1ECFB"/>
</g>
</g>
<g id="Group_7">
<g id="Group_8">
<path id="Vector_4" d="M2.04962 4.55811H0.973506C0.619917 4.55811 0.333252 4.84477 0.333252 5.19836C0.333252 5.55195 0.619917 5.83861 0.973506 5.83861H2.04962C2.40321 5.83861 2.68987 5.55195 2.68987 5.19836C2.68987 4.84477 2.40317 4.55811 2.04962 4.55811Z" fill="#C1ECFB"/>
</g>
</g>
</g>
</svg>
