<svg width="720" height="266" viewBox="0 0 720 266" fill="none" xmlns="http://www.w3.org/2000/svg">
<circle opacity="0.1" cx="353.139" cy="96.5" r="72.6664" fill="url(#paint0_linear_0_9050)"/>
<ellipse cx="276.418" cy="41.9222" rx="7.17308" ry="7.48495" fill="url(#paint1_linear_0_9050)"/>
<ellipse cx="433.29" cy="138.291" rx="5.61371" ry="5.30184" fill="url(#paint2_linear_0_9050)"/>
<circle cx="275.794" cy="149.518" r="9.04431" fill="url(#paint3_linear_0_9050)"/>
<circle cx="444.206" cy="65.3127" r="9.04431" fill="url(#paint4_linear_0_9050)"/>
<ellipse cx="426.741" cy="33.8135" rx="6.54933" ry="6.23746" fill="url(#paint5_linear_0_9050)"/>
<g filter="url(#filter0_dd_0_9050)">
<path d="M353 71.7341L358.076 69.6064L353.001 71.7701V132.349L399.772 112.735V52.1294L400 52.0339L399.772 51.9327V51.8309L399.655 51.8808L353.369 31.3487L306 51.5414L306.224 51.6377L306 111.997L353 132.313L353 71.7341Z" fill="url(#paint6_linear_0_9050)"/>
<path opacity="0.4" d="M353 71.7341V132.313L306 111.997L306.224 51.6377L353 71.7341Z" fill="url(#paint7_linear_0_9050)"/>
<path d="M353.001 71.7701V132.349L399.772 112.735V51.831L353.001 71.7701Z" fill="url(#paint8_linear_0_9050)"/>
<path opacity="0.4" d="M353 71.7341L400 52.0339L353.369 31.3487L306 51.5414L353 71.7341Z" fill="url(#paint9_linear_0_9050)"/>
<path d="M323.717 43.9889L370.538 64.383L370.963 79.2449L384.063 73.8356L383.667 58.8799L335.461 38.9826L323.717 43.9889Z" fill="url(#paint10_linear_0_9050)"/>
</g>
<g filter="url(#filter1_b_0_9050)">
<rect x="330.877" y="112.158" width="50.5234" height="51.1472" rx="25.2617" fill="#344054" fill-opacity="0.4"/>
<path d="M369 149.834L364.139 144.973M367.611 136.639C367.611 143.159 362.326 148.445 355.806 148.445C349.286 148.445 344 143.159 344 136.639C344 130.119 349.286 124.834 355.806 124.834C362.326 124.834 367.611 130.119 367.611 136.639Z" stroke="url(#paint11_linear_0_9050)" stroke-width="4.36364" stroke-linecap="round" stroke-linejoin="round"/>
</g>
<path d="M301.488 201.166H298.968L293.262 192.544V201.166H290.742V188.584H293.262L298.968 197.224V188.584H301.488V201.166ZM308.406 201.328C307.446 201.328 306.582 201.118 305.814 200.698C305.046 200.266 304.44 199.66 303.996 198.88C303.564 198.1 303.348 197.2 303.348 196.18C303.348 195.16 303.57 194.26 304.014 193.48C304.47 192.7 305.088 192.1 305.868 191.68C306.648 191.248 307.518 191.032 308.478 191.032C309.438 191.032 310.308 191.248 311.088 191.68C311.868 192.1 312.48 192.7 312.924 193.48C313.38 194.26 313.608 195.16 313.608 196.18C313.608 197.2 313.374 198.1 312.906 198.88C312.45 199.66 311.826 200.266 311.034 200.698C310.254 201.118 309.378 201.328 308.406 201.328ZM308.406 199.132C308.862 199.132 309.288 199.024 309.684 198.808C310.092 198.58 310.416 198.244 310.656 197.8C310.896 197.356 311.016 196.816 311.016 196.18C311.016 195.232 310.764 194.506 310.26 194.002C309.768 193.486 309.162 193.228 308.442 193.228C307.722 193.228 307.116 193.486 306.624 194.002C306.144 194.506 305.904 195.232 305.904 196.18C305.904 197.128 306.138 197.86 306.606 198.376C307.086 198.88 307.686 199.132 308.406 199.132ZM319.098 196.144C319.098 195.136 319.296 194.242 319.692 193.462C320.1 192.682 320.652 192.082 321.348 191.662C322.044 191.242 322.818 191.032 323.67 191.032C324.318 191.032 324.936 191.176 325.524 191.464C326.112 191.74 326.58 192.112 326.928 192.58V187.846H329.484V201.166H326.928V199.69C326.616 200.182 326.178 200.578 325.614 200.878C325.05 201.178 324.396 201.328 323.652 201.328C322.812 201.328 322.044 201.112 321.348 200.68C320.652 200.248 320.1 199.642 319.692 198.862C319.296 198.07 319.098 197.164 319.098 196.144ZM326.946 196.18C326.946 195.568 326.826 195.046 326.586 194.614C326.346 194.17 326.022 193.834 325.614 193.606C325.206 193.366 324.768 193.246 324.3 193.246C323.832 193.246 323.4 193.36 323.004 193.588C322.608 193.816 322.284 194.152 322.032 194.596C321.792 195.028 321.672 195.544 321.672 196.144C321.672 196.744 321.792 197.272 322.032 197.728C322.284 198.172 322.608 198.514 323.004 198.754C323.412 198.994 323.844 199.114 324.3 199.114C324.768 199.114 325.206 199 325.614 198.772C326.022 198.532 326.346 198.196 326.586 197.764C326.826 197.32 326.946 196.792 326.946 196.18ZM331.297 196.144C331.297 195.136 331.495 194.242 331.891 193.462C332.299 192.682 332.845 192.082 333.529 191.662C334.225 191.242 334.999 191.032 335.851 191.032C336.595 191.032 337.243 191.182 337.795 191.482C338.359 191.782 338.809 192.16 339.145 192.616V191.194H341.683V201.166H339.145V199.708C338.821 200.176 338.371 200.566 337.795 200.878C337.231 201.178 336.577 201.328 335.833 201.328C334.993 201.328 334.225 201.112 333.529 200.68C332.845 200.248 332.299 199.642 331.891 198.862C331.495 198.07 331.297 197.164 331.297 196.144ZM339.145 196.18C339.145 195.568 339.025 195.046 338.785 194.614C338.545 194.17 338.221 193.834 337.813 193.606C337.405 193.366 336.967 193.246 336.499 193.246C336.031 193.246 335.599 193.36 335.203 193.588C334.807 193.816 334.483 194.152 334.231 194.596C333.991 195.028 333.871 195.544 333.871 196.144C333.871 196.744 333.991 197.272 334.231 197.728C334.483 198.172 334.807 198.514 335.203 198.754C335.611 198.994 336.043 199.114 336.499 199.114C336.967 199.114 337.405 199 337.813 198.772C338.221 198.532 338.545 198.196 338.785 197.764C339.025 197.32 339.145 196.792 339.145 196.18ZM347.078 193.264V198.088C347.078 198.424 347.156 198.67 347.312 198.826C347.48 198.97 347.756 199.042 348.14 199.042H349.31V201.166H347.726C345.602 201.166 344.54 200.134 344.54 198.07V193.264H343.352V191.194H344.54V188.728H347.078V191.194H349.31V193.264H347.078ZM350.475 196.144C350.475 195.136 350.673 194.242 351.069 193.462C351.477 192.682 352.023 192.082 352.707 191.662C353.403 191.242 354.177 191.032 355.029 191.032C355.773 191.032 356.421 191.182 356.973 191.482C357.537 191.782 357.987 192.16 358.323 192.616V191.194H360.861V201.166H358.323V199.708C357.999 200.176 357.549 200.566 356.973 200.878C356.409 201.178 355.755 201.328 355.011 201.328C354.171 201.328 353.403 201.112 352.707 200.68C352.023 200.248 351.477 199.642 351.069 198.862C350.673 198.07 350.475 197.164 350.475 196.144ZM358.323 196.18C358.323 195.568 358.203 195.046 357.963 194.614C357.723 194.17 357.399 193.834 356.991 193.606C356.583 193.366 356.145 193.246 355.677 193.246C355.209 193.246 354.777 193.36 354.381 193.588C353.985 193.816 353.661 194.152 353.409 194.596C353.169 195.028 353.049 195.544 353.049 196.144C353.049 196.744 353.169 197.272 353.409 197.728C353.661 198.172 353.985 198.514 354.381 198.754C354.789 198.994 355.221 199.114 355.677 199.114C356.145 199.114 356.583 199 356.991 198.772C357.399 198.532 357.723 198.196 357.963 197.764C358.203 197.32 358.323 196.792 358.323 196.18ZM375.369 188.602V190.636H370.131V193.858H374.145V195.856H370.131V201.166H367.611V188.602H375.369ZM381.584 201.328C380.624 201.328 379.76 201.118 378.992 200.698C378.224 200.266 377.618 199.66 377.174 198.88C376.742 198.1 376.526 197.2 376.526 196.18C376.526 195.16 376.748 194.26 377.192 193.48C377.648 192.7 378.266 192.1 379.046 191.68C379.826 191.248 380.696 191.032 381.656 191.032C382.616 191.032 383.486 191.248 384.266 191.68C385.046 192.1 385.658 192.7 386.102 193.48C386.558 194.26 386.786 195.16 386.786 196.18C386.786 197.2 386.552 198.1 386.084 198.88C385.628 199.66 385.004 200.266 384.212 200.698C383.432 201.118 382.556 201.328 381.584 201.328ZM381.584 199.132C382.04 199.132 382.466 199.024 382.862 198.808C383.27 198.58 383.594 198.244 383.834 197.8C384.074 197.356 384.194 196.816 384.194 196.18C384.194 195.232 383.942 194.506 383.438 194.002C382.946 193.486 382.34 193.228 381.62 193.228C380.9 193.228 380.294 193.486 379.802 194.002C379.322 194.506 379.082 195.232 379.082 196.18C379.082 197.128 379.316 197.86 379.784 198.376C380.264 198.88 380.864 199.132 381.584 199.132ZM398.049 191.194V201.166H395.511V199.906C395.187 200.338 394.761 200.68 394.233 200.932C393.717 201.172 393.153 201.292 392.541 201.292C391.761 201.292 391.071 201.13 390.471 200.806C389.871 200.47 389.397 199.984 389.049 199.348C388.713 198.7 388.545 197.932 388.545 197.044V191.194H391.065V196.684C391.065 197.476 391.263 198.088 391.659 198.52C392.055 198.94 392.595 199.15 393.279 199.15C393.975 199.15 394.521 198.94 394.917 198.52C395.313 198.088 395.511 197.476 395.511 196.684V191.194H398.049ZM406.061 191.05C407.249 191.05 408.209 191.428 408.941 192.184C409.673 192.928 410.039 193.972 410.039 195.316V201.166H407.519V195.658C407.519 194.866 407.321 194.26 406.925 193.84C406.529 193.408 405.989 193.192 405.305 193.192C404.609 193.192 404.057 193.408 403.649 193.84C403.253 194.26 403.055 194.866 403.055 195.658V201.166H400.535V191.194H403.055V192.436C403.391 192.004 403.817 191.668 404.333 191.428C404.861 191.176 405.437 191.05 406.061 191.05ZM411.787 196.144C411.787 195.136 411.985 194.242 412.381 193.462C412.789 192.682 413.341 192.082 414.037 191.662C414.733 191.242 415.507 191.032 416.359 191.032C417.007 191.032 417.625 191.176 418.213 191.464C418.801 191.74 419.269 192.112 419.617 192.58V187.846H422.173V201.166H419.617V199.69C419.305 200.182 418.867 200.578 418.303 200.878C417.739 201.178 417.085 201.328 416.341 201.328C415.501 201.328 414.733 201.112 414.037 200.68C413.341 200.248 412.789 199.642 412.381 198.862C411.985 198.07 411.787 197.164 411.787 196.144ZM419.635 196.18C419.635 195.568 419.515 195.046 419.275 194.614C419.035 194.17 418.711 193.834 418.303 193.606C417.895 193.366 417.457 193.246 416.989 193.246C416.521 193.246 416.089 193.36 415.693 193.588C415.297 193.816 414.973 194.152 414.721 194.596C414.481 195.028 414.361 195.544 414.361 196.144C414.361 196.744 414.481 197.272 414.721 197.728C414.973 198.172 415.297 198.514 415.693 198.754C416.101 198.994 416.533 199.114 416.989 199.114C417.457 199.114 417.895 199 418.303 198.772C418.711 198.532 419.035 198.196 419.275 197.764C419.515 197.32 419.635 196.792 419.635 196.18ZM427.893 188.386L427.605 197.08H425.481L425.175 188.386H427.893ZM426.597 201.292C426.141 201.292 425.763 201.154 425.463 200.878C425.175 200.59 425.031 200.236 425.031 199.816C425.031 199.396 425.175 199.048 425.463 198.772C425.763 198.484 426.141 198.34 426.597 198.34C427.041 198.34 427.407 198.484 427.695 198.772C427.983 199.048 428.127 199.396 428.127 199.816C428.127 200.236 427.983 200.59 427.695 200.878C427.407 201.154 427.041 201.292 426.597 201.292Z" fill="white"/>
<path d="M190.867 236.264C190.223 236.264 189.645 236.152 189.131 235.928C188.627 235.695 188.231 235.378 187.941 234.976C187.652 234.566 187.503 234.094 187.493 233.562H188.851C188.898 234.02 189.085 234.407 189.411 234.724C189.747 235.032 190.233 235.186 190.867 235.186C191.474 235.186 191.95 235.037 192.295 234.738C192.65 234.43 192.827 234.038 192.827 233.562C192.827 233.189 192.725 232.886 192.519 232.652C192.314 232.419 192.057 232.242 191.749 232.12C191.441 231.999 191.026 231.868 190.503 231.728C189.859 231.56 189.341 231.392 188.949 231.224C188.567 231.056 188.235 230.795 187.955 230.44C187.685 230.076 187.549 229.591 187.549 228.984C187.549 228.452 187.685 227.981 187.955 227.57C188.226 227.16 188.604 226.842 189.089 226.618C189.584 226.394 190.149 226.282 190.783 226.282C191.698 226.282 192.445 226.511 193.023 226.968C193.611 227.426 193.943 228.032 194.017 228.788H192.617C192.571 228.415 192.375 228.088 192.029 227.808C191.684 227.519 191.227 227.374 190.657 227.374C190.125 227.374 189.691 227.514 189.355 227.794C189.019 228.065 188.851 228.448 188.851 228.942C188.851 229.297 188.949 229.586 189.145 229.81C189.351 230.034 189.598 230.207 189.887 230.328C190.186 230.44 190.601 230.571 191.133 230.72C191.777 230.898 192.295 231.075 192.687 231.252C193.079 231.42 193.415 231.686 193.695 232.05C193.975 232.405 194.115 232.89 194.115 233.506C194.115 233.982 193.989 234.43 193.737 234.85C193.485 235.27 193.112 235.611 192.617 235.872C192.123 236.134 191.539 236.264 190.867 236.264ZM195.514 232.316C195.514 231.523 195.673 230.832 195.99 230.244C196.307 229.647 196.746 229.185 197.306 228.858C197.875 228.532 198.524 228.368 199.252 228.368C200.195 228.368 200.969 228.597 201.576 229.054C202.192 229.512 202.598 230.146 202.794 230.958H201.422C201.291 230.492 201.035 230.123 200.652 229.852C200.279 229.582 199.812 229.446 199.252 229.446C198.524 229.446 197.936 229.698 197.488 230.202C197.04 230.697 196.816 231.402 196.816 232.316C196.816 233.24 197.04 233.954 197.488 234.458C197.936 234.962 198.524 235.214 199.252 235.214C199.812 235.214 200.279 235.084 200.652 234.822C201.025 234.561 201.282 234.188 201.422 233.702H202.794C202.589 234.486 202.178 235.116 201.562 235.592C200.946 236.059 200.176 236.292 199.252 236.292C198.524 236.292 197.875 236.129 197.306 235.802C196.746 235.476 196.307 235.014 195.99 234.416C195.673 233.819 195.514 233.119 195.514 232.316ZM204.018 232.302C204.018 231.518 204.177 230.832 204.494 230.244C204.811 229.647 205.245 229.185 205.796 228.858C206.356 228.532 206.977 228.368 207.658 228.368C208.33 228.368 208.913 228.513 209.408 228.802C209.903 229.092 210.271 229.456 210.514 229.894V228.494H211.802V236.166H210.514V234.738C210.262 235.186 209.884 235.56 209.38 235.858C208.885 236.148 208.307 236.292 207.644 236.292C206.963 236.292 206.347 236.124 205.796 235.788C205.245 235.452 204.811 234.981 204.494 234.374C204.177 233.768 204.018 233.077 204.018 232.302ZM210.514 232.316C210.514 231.738 210.397 231.234 210.164 230.804C209.931 230.375 209.613 230.048 209.212 229.824C208.82 229.591 208.386 229.474 207.91 229.474C207.434 229.474 207 229.586 206.608 229.81C206.216 230.034 205.903 230.361 205.67 230.79C205.437 231.22 205.32 231.724 205.32 232.302C205.32 232.89 205.437 233.404 205.67 233.842C205.903 234.272 206.216 234.603 206.608 234.836C207 235.06 207.434 235.172 207.91 235.172C208.386 235.172 208.82 235.06 209.212 234.836C209.613 234.603 209.931 234.272 210.164 233.842C210.397 233.404 210.514 232.895 210.514 232.316ZM217.693 228.354C218.626 228.354 219.382 228.639 219.961 229.208C220.54 229.768 220.829 230.58 220.829 231.644V236.166H219.569V231.826C219.569 231.061 219.378 230.478 218.995 230.076C218.612 229.666 218.09 229.46 217.427 229.46C216.755 229.46 216.218 229.67 215.817 230.09C215.425 230.51 215.229 231.122 215.229 231.924V236.166H213.955V228.494H215.229V229.586C215.481 229.194 215.822 228.891 216.251 228.676C216.69 228.462 217.17 228.354 217.693 228.354ZM228.196 229.544V234.066C228.196 234.44 228.276 234.706 228.434 234.864C228.593 235.014 228.868 235.088 229.26 235.088H230.198V236.166H229.05C228.341 236.166 227.809 236.003 227.454 235.676C227.1 235.35 226.922 234.813 226.922 234.066V229.544H225.928V228.494H226.922V226.562H228.196V228.494H230.198V229.544H228.196ZM235.55 228.354C236.129 228.354 236.651 228.48 237.118 228.732C237.585 228.975 237.949 229.344 238.21 229.838C238.481 230.333 238.616 230.935 238.616 231.644V236.166H237.356V231.826C237.356 231.061 237.165 230.478 236.782 230.076C236.399 229.666 235.877 229.46 235.214 229.46C234.542 229.46 234.005 229.67 233.604 230.09C233.212 230.51 233.016 231.122 233.016 231.924V236.166H231.742V225.806H233.016V229.586C233.268 229.194 233.613 228.891 234.052 228.676C234.5 228.462 234.999 228.354 235.55 228.354ZM247.697 232.036C247.697 232.279 247.683 232.536 247.655 232.806H241.523C241.57 233.562 241.826 234.155 242.293 234.584C242.769 235.004 243.343 235.214 244.015 235.214C244.566 235.214 245.023 235.088 245.387 234.836C245.76 234.575 246.022 234.23 246.171 233.8H247.543C247.338 234.538 246.927 235.14 246.311 235.606C245.695 236.064 244.93 236.292 244.015 236.292C243.287 236.292 242.634 236.129 242.055 235.802C241.486 235.476 241.038 235.014 240.711 234.416C240.384 233.81 240.221 233.11 240.221 232.316C240.221 231.523 240.38 230.828 240.697 230.23C241.014 229.633 241.458 229.176 242.027 228.858C242.606 228.532 243.268 228.368 244.015 228.368C244.743 228.368 245.387 228.527 245.947 228.844C246.507 229.162 246.936 229.6 247.235 230.16C247.543 230.711 247.697 231.336 247.697 232.036ZM246.381 231.77C246.381 231.285 246.274 230.87 246.059 230.524C245.844 230.17 245.55 229.904 245.177 229.726C244.813 229.54 244.407 229.446 243.959 229.446C243.315 229.446 242.764 229.652 242.307 230.062C241.859 230.473 241.602 231.042 241.537 231.77H246.381ZM260.937 238.014L258.991 236.068C258.515 236.199 258.03 236.264 257.535 236.264C256.63 236.264 255.804 236.054 255.057 235.634C254.311 235.205 253.718 234.612 253.279 233.856C252.85 233.091 252.635 232.232 252.635 231.28C252.635 230.328 252.85 229.474 253.279 228.718C253.718 227.953 254.311 227.36 255.057 226.94C255.804 226.511 256.63 226.296 257.535 226.296C258.45 226.296 259.281 226.511 260.027 226.94C260.774 227.36 261.362 227.948 261.791 228.704C262.221 229.46 262.435 230.319 262.435 231.28C262.435 232.214 262.23 233.054 261.819 233.8C261.409 234.547 260.844 235.135 260.125 235.564L262.589 238.014H260.937ZM253.937 231.28C253.937 232.055 254.091 232.736 254.399 233.324C254.717 233.912 255.146 234.365 255.687 234.682C256.238 235 256.854 235.158 257.535 235.158C258.217 235.158 258.828 235 259.369 234.682C259.92 234.365 260.349 233.912 260.657 233.324C260.975 232.736 261.133 232.055 261.133 231.28C261.133 230.496 260.975 229.815 260.657 229.236C260.349 228.648 259.925 228.196 259.383 227.878C258.842 227.561 258.226 227.402 257.535 227.402C256.845 227.402 256.229 227.561 255.687 227.878C255.146 228.196 254.717 228.648 254.399 229.236C254.091 229.815 253.937 230.496 253.937 231.28ZM269.282 236.166L266.958 232.176H265.418V236.166H264.144V226.408H267.294C268.032 226.408 268.652 226.534 269.156 226.786C269.67 227.038 270.052 227.379 270.304 227.808C270.556 228.238 270.682 228.728 270.682 229.278C270.682 229.95 270.486 230.543 270.094 231.056C269.712 231.57 269.133 231.91 268.358 232.078L270.808 236.166H269.282ZM265.418 231.154H267.294C267.985 231.154 268.503 230.986 268.848 230.65C269.194 230.305 269.366 229.848 269.366 229.278C269.366 228.7 269.194 228.252 268.848 227.934C268.512 227.617 267.994 227.458 267.294 227.458H265.418V231.154ZM275.918 231.28C275.918 230.328 276.133 229.474 276.562 228.718C276.992 227.953 277.575 227.356 278.312 226.926C279.059 226.497 279.885 226.282 280.79 226.282C281.854 226.282 282.783 226.539 283.576 227.052C284.37 227.566 284.948 228.294 285.312 229.236H283.786C283.516 228.648 283.124 228.196 282.61 227.878C282.106 227.561 281.5 227.402 280.79 227.402C280.109 227.402 279.498 227.561 278.956 227.878C278.415 228.196 277.99 228.648 277.682 229.236C277.374 229.815 277.22 230.496 277.22 231.28C277.22 232.055 277.374 232.736 277.682 233.324C277.99 233.903 278.415 234.351 278.956 234.668C279.498 234.986 280.109 235.144 280.79 235.144C281.5 235.144 282.106 234.99 282.61 234.682C283.124 234.365 283.516 233.912 283.786 233.324H285.312C284.948 234.258 284.37 234.981 283.576 235.494C282.783 235.998 281.854 236.25 280.79 236.25C279.885 236.25 279.059 236.04 278.312 235.62C277.575 235.191 276.992 234.598 276.562 233.842C276.133 233.086 275.918 232.232 275.918 231.28ZM290.555 236.292C289.836 236.292 289.183 236.129 288.595 235.802C288.016 235.476 287.559 235.014 287.223 234.416C286.896 233.81 286.733 233.11 286.733 232.316C286.733 231.532 286.901 230.842 287.237 230.244C287.582 229.638 288.049 229.176 288.637 228.858C289.225 228.532 289.883 228.368 290.611 228.368C291.339 228.368 291.997 228.532 292.585 228.858C293.173 229.176 293.635 229.633 293.971 230.23C294.316 230.828 294.489 231.523 294.489 232.316C294.489 233.11 294.312 233.81 293.957 234.416C293.612 235.014 293.14 235.476 292.543 235.802C291.946 236.129 291.283 236.292 290.555 236.292ZM290.555 235.172C291.012 235.172 291.442 235.065 291.843 234.85C292.244 234.636 292.566 234.314 292.809 233.884C293.061 233.455 293.187 232.932 293.187 232.316C293.187 231.7 293.066 231.178 292.823 230.748C292.58 230.319 292.263 230.002 291.871 229.796C291.479 229.582 291.054 229.474 290.597 229.474C290.13 229.474 289.701 229.582 289.309 229.796C288.926 230.002 288.618 230.319 288.385 230.748C288.152 231.178 288.035 231.7 288.035 232.316C288.035 232.942 288.147 233.469 288.371 233.898C288.604 234.328 288.912 234.65 289.295 234.864C289.678 235.07 290.098 235.172 290.555 235.172ZM295.688 232.302C295.688 231.518 295.847 230.832 296.164 230.244C296.481 229.647 296.915 229.185 297.466 228.858C298.026 228.532 298.651 228.368 299.342 228.368C299.939 228.368 300.495 228.508 301.008 228.788C301.521 229.059 301.913 229.418 302.184 229.866V225.806H303.472V236.166H302.184V234.724C301.932 235.182 301.559 235.56 301.064 235.858C300.569 236.148 299.991 236.292 299.328 236.292C298.647 236.292 298.026 236.124 297.466 235.788C296.915 235.452 296.481 234.981 296.164 234.374C295.847 233.768 295.688 233.077 295.688 232.302ZM302.184 232.316C302.184 231.738 302.067 231.234 301.834 230.804C301.601 230.375 301.283 230.048 300.882 229.824C300.49 229.591 300.056 229.474 299.58 229.474C299.104 229.474 298.67 229.586 298.278 229.81C297.886 230.034 297.573 230.361 297.34 230.79C297.107 231.22 296.99 231.724 296.99 232.302C296.99 232.89 297.107 233.404 297.34 233.842C297.573 234.272 297.886 234.603 298.278 234.836C298.67 235.06 299.104 235.172 299.58 235.172C300.056 235.172 300.49 235.06 300.882 234.836C301.283 234.603 301.601 234.272 301.834 233.842C302.067 233.404 302.184 232.895 302.184 232.316ZM312.625 232.036C312.625 232.279 312.611 232.536 312.583 232.806H306.451C306.498 233.562 306.754 234.155 307.221 234.584C307.697 235.004 308.271 235.214 308.943 235.214C309.494 235.214 309.951 235.088 310.315 234.836C310.688 234.575 310.95 234.23 311.099 233.8H312.471C312.266 234.538 311.855 235.14 311.239 235.606C310.623 236.064 309.858 236.292 308.943 236.292C308.215 236.292 307.562 236.129 306.983 235.802C306.414 235.476 305.966 235.014 305.639 234.416C305.312 233.81 305.149 233.11 305.149 232.316C305.149 231.523 305.308 230.828 305.625 230.23C305.942 229.633 306.386 229.176 306.955 228.858C307.534 228.532 308.196 228.368 308.943 228.368C309.671 228.368 310.315 228.527 310.875 228.844C311.435 229.162 311.864 229.6 312.163 230.16C312.471 230.711 312.625 231.336 312.625 232.036ZM311.309 231.77C311.309 231.285 311.202 230.87 310.987 230.524C310.772 230.17 310.478 229.904 310.105 229.726C309.741 229.54 309.335 229.446 308.887 229.446C308.243 229.446 307.692 229.652 307.235 230.062C306.787 230.473 306.53 231.042 306.465 231.77H311.309ZM319.593 229.544V234.066C319.593 234.44 319.672 234.706 319.831 234.864C319.99 235.014 320.265 235.088 320.657 235.088H321.595V236.166H320.447C319.738 236.166 319.206 236.003 318.851 235.676C318.496 235.35 318.319 234.813 318.319 234.066V229.544H317.325V228.494H318.319V226.562H319.593V228.494H321.595V229.544H319.593ZM326.485 236.292C325.766 236.292 325.113 236.129 324.525 235.802C323.946 235.476 323.489 235.014 323.153 234.416C322.826 233.81 322.663 233.11 322.663 232.316C322.663 231.532 322.831 230.842 323.167 230.244C323.512 229.638 323.979 229.176 324.567 228.858C325.155 228.532 325.813 228.368 326.541 228.368C327.269 228.368 327.927 228.532 328.515 228.858C329.103 229.176 329.565 229.633 329.901 230.23C330.246 230.828 330.419 231.523 330.419 232.316C330.419 233.11 330.241 233.81 329.887 234.416C329.541 235.014 329.07 235.476 328.473 235.802C327.875 236.129 327.213 236.292 326.485 236.292ZM326.485 235.172C326.942 235.172 327.371 235.065 327.773 234.85C328.174 234.636 328.496 234.314 328.739 233.884C328.991 233.455 329.117 232.932 329.117 232.316C329.117 231.7 328.995 231.178 328.753 230.748C328.51 230.319 328.193 230.002 327.801 229.796C327.409 229.582 326.984 229.474 326.527 229.474C326.06 229.474 325.631 229.582 325.239 229.796C324.856 230.002 324.548 230.319 324.315 230.748C324.081 231.178 323.965 231.7 323.965 232.316C323.965 232.942 324.077 233.469 324.301 233.898C324.534 234.328 324.842 234.65 325.225 234.864C325.607 235.07 326.027 235.172 326.485 235.172ZM345.052 228.354C345.649 228.354 346.181 228.48 346.648 228.732C347.115 228.975 347.483 229.344 347.754 229.838C348.025 230.333 348.16 230.935 348.16 231.644V236.166H346.9V231.826C346.9 231.061 346.709 230.478 346.326 230.076C345.953 229.666 345.444 229.46 344.8 229.46C344.137 229.46 343.61 229.675 343.218 230.104C342.826 230.524 342.63 231.136 342.63 231.938V236.166H341.37V231.826C341.37 231.061 341.179 230.478 340.796 230.076C340.423 229.666 339.914 229.46 339.27 229.46C338.607 229.46 338.08 229.675 337.688 230.104C337.296 230.524 337.1 231.136 337.1 231.938V236.166H335.826V228.494H337.1V229.6C337.352 229.199 337.688 228.891 338.108 228.676C338.537 228.462 339.009 228.354 339.522 228.354C340.166 228.354 340.735 228.499 341.23 228.788C341.725 229.078 342.093 229.502 342.336 230.062C342.551 229.521 342.905 229.101 343.4 228.802C343.895 228.504 344.445 228.354 345.052 228.354ZM349.774 232.302C349.774 231.518 349.933 230.832 350.25 230.244C350.567 229.647 351.001 229.185 351.552 228.858C352.112 228.532 352.733 228.368 353.414 228.368C354.086 228.368 354.669 228.513 355.164 228.802C355.659 229.092 356.027 229.456 356.27 229.894V228.494H357.558V236.166H356.27V234.738C356.018 235.186 355.64 235.56 355.136 235.858C354.641 236.148 354.063 236.292 353.4 236.292C352.719 236.292 352.103 236.124 351.552 235.788C351.001 235.452 350.567 234.981 350.25 234.374C349.933 233.768 349.774 233.077 349.774 232.302ZM356.27 232.316C356.27 231.738 356.153 231.234 355.92 230.804C355.687 230.375 355.369 230.048 354.968 229.824C354.576 229.591 354.142 229.474 353.666 229.474C353.19 229.474 352.756 229.586 352.364 229.81C351.972 230.034 351.659 230.361 351.426 230.79C351.193 231.22 351.076 231.724 351.076 232.302C351.076 232.89 351.193 233.404 351.426 233.842C351.659 234.272 351.972 234.603 352.364 234.836C352.756 235.06 353.19 235.172 353.666 235.172C354.142 235.172 354.576 235.06 354.968 234.836C355.369 234.603 355.687 234.272 355.92 233.842C356.153 233.404 356.27 232.895 356.27 232.316ZM363.995 236.166L360.985 232.778V236.166H359.711V225.806H360.985V231.896L363.939 228.494H365.717L362.105 232.316L365.731 236.166H363.995ZM373.916 232.036C373.916 232.279 373.902 232.536 373.874 232.806H367.742C367.789 233.562 368.045 234.155 368.512 234.584C368.988 235.004 369.562 235.214 370.234 235.214C370.785 235.214 371.242 235.088 371.606 234.836C371.979 234.575 372.241 234.23 372.39 233.8H373.762C373.557 234.538 373.146 235.14 372.53 235.606C371.914 236.064 371.149 236.292 370.234 236.292C369.506 236.292 368.853 236.129 368.274 235.802C367.705 235.476 367.257 235.014 366.93 234.416C366.603 233.81 366.44 233.11 366.44 232.316C366.44 231.523 366.599 230.828 366.916 230.23C367.233 229.633 367.677 229.176 368.246 228.858C368.825 228.532 369.487 228.368 370.234 228.368C370.962 228.368 371.606 228.527 372.166 228.844C372.726 229.162 373.155 229.6 373.454 230.16C373.762 230.711 373.916 231.336 373.916 232.036ZM372.6 231.77C372.6 231.285 372.493 230.87 372.278 230.524C372.063 230.17 371.769 229.904 371.396 229.726C371.032 229.54 370.626 229.446 370.178 229.446C369.534 229.446 368.983 229.652 368.526 230.062C368.078 230.473 367.821 231.042 367.756 231.77H372.6ZM378.854 232.302C378.854 231.518 379.013 230.832 379.33 230.244C379.647 229.647 380.081 229.185 380.632 228.858C381.192 228.532 381.813 228.368 382.494 228.368C383.166 228.368 383.749 228.513 384.244 228.802C384.739 229.092 385.107 229.456 385.35 229.894V228.494H386.638V236.166H385.35V234.738C385.098 235.186 384.72 235.56 384.216 235.858C383.721 236.148 383.143 236.292 382.48 236.292C381.799 236.292 381.183 236.124 380.632 235.788C380.081 235.452 379.647 234.981 379.33 234.374C379.013 233.768 378.854 233.077 378.854 232.302ZM385.35 232.316C385.35 231.738 385.233 231.234 385 230.804C384.767 230.375 384.449 230.048 384.048 229.824C383.656 229.591 383.222 229.474 382.746 229.474C382.27 229.474 381.836 229.586 381.444 229.81C381.052 230.034 380.739 230.361 380.506 230.79C380.273 231.22 380.156 231.724 380.156 232.302C380.156 232.89 380.273 233.404 380.506 233.842C380.739 234.272 381.052 234.603 381.444 234.836C381.836 235.06 382.27 235.172 382.746 235.172C383.222 235.172 383.656 235.06 384.048 234.836C384.449 234.603 384.767 234.272 385 233.842C385.233 233.404 385.35 232.895 385.35 232.316ZM392.529 228.354C393.462 228.354 394.218 228.639 394.797 229.208C395.376 229.768 395.665 230.58 395.665 231.644V236.166H394.405V231.826C394.405 231.061 394.214 230.478 393.831 230.076C393.448 229.666 392.926 229.46 392.263 229.46C391.591 229.46 391.054 229.67 390.653 230.09C390.261 230.51 390.065 231.122 390.065 231.924V236.166H388.791V228.494H390.065V229.586C390.317 229.194 390.658 228.891 391.087 228.676C391.526 228.462 392.006 228.354 392.529 228.354ZM408.478 232.036C408.478 232.279 408.464 232.536 408.436 232.806H402.304C402.351 233.562 402.608 234.155 403.074 234.584C403.55 235.004 404.124 235.214 404.796 235.214C405.347 235.214 405.804 235.088 406.168 234.836C406.542 234.575 406.803 234.23 406.952 233.8H408.324C408.119 234.538 407.708 235.14 407.092 235.606C406.476 236.064 405.711 236.292 404.796 236.292C404.068 236.292 403.415 236.129 402.836 235.802C402.267 235.476 401.819 235.014 401.492 234.416C401.166 233.81 401.002 233.11 401.002 232.316C401.002 231.523 401.161 230.828 401.478 230.23C401.796 229.633 402.239 229.176 402.808 228.858C403.387 228.532 404.05 228.368 404.796 228.368C405.524 228.368 406.168 228.527 406.728 228.844C407.288 229.162 407.718 229.6 408.016 230.16C408.324 230.711 408.478 231.336 408.478 232.036ZM407.162 231.77C407.162 231.285 407.055 230.87 406.84 230.524C406.626 230.17 406.332 229.904 405.958 229.726C405.594 229.54 405.188 229.446 404.74 229.446C404.096 229.446 403.546 229.652 403.088 230.062C402.64 230.473 402.384 231.042 402.318 231.77H407.162ZM413.898 228.354C414.831 228.354 415.587 228.639 416.166 229.208C416.745 229.768 417.034 230.58 417.034 231.644V236.166H415.774V231.826C415.774 231.061 415.583 230.478 415.2 230.076C414.817 229.666 414.295 229.46 413.632 229.46C412.96 229.46 412.423 229.67 412.022 230.09C411.63 230.51 411.434 231.122 411.434 231.924V236.166H410.16V228.494H411.434V229.586C411.686 229.194 412.027 228.891 412.456 228.676C412.895 228.462 413.375 228.354 413.898 228.354ZM420.669 229.544V234.066C420.669 234.44 420.748 234.706 420.907 234.864C421.066 235.014 421.341 235.088 421.733 235.088H422.671V236.166H421.523C420.814 236.166 420.282 236.003 419.927 235.676C419.572 235.35 419.395 234.813 419.395 234.066V229.544H418.401V228.494H419.395V226.562H420.669V228.494H422.671V229.544H420.669ZM425.489 229.74C425.713 229.302 426.03 228.961 426.441 228.718C426.861 228.476 427.369 228.354 427.967 228.354V229.67H427.631C426.203 229.67 425.489 230.445 425.489 231.994V236.166H424.215V228.494H425.489V229.74ZM436.045 228.494L431.425 239.778H430.109L431.621 236.082L428.527 228.494H429.941L432.349 234.71L434.729 228.494H436.045ZM441.716 227.248C441.474 227.248 441.268 227.164 441.1 226.996C440.932 226.828 440.848 226.623 440.848 226.38C440.848 226.138 440.932 225.932 441.1 225.764C441.268 225.596 441.474 225.512 441.716 225.512C441.95 225.512 442.146 225.596 442.304 225.764C442.472 225.932 442.556 226.138 442.556 226.38C442.556 226.623 442.472 226.828 442.304 226.996C442.146 227.164 441.95 227.248 441.716 227.248ZM442.332 228.494V236.166H441.058V228.494H442.332ZM448.242 228.354C449.175 228.354 449.931 228.639 450.51 229.208C451.088 229.768 451.378 230.58 451.378 231.644V236.166H450.118V231.826C450.118 231.061 449.926 230.478 449.544 230.076C449.161 229.666 448.638 229.46 447.976 229.46C447.304 229.46 446.767 229.67 446.366 230.09C445.974 230.51 445.778 231.122 445.778 231.924V236.166H444.504V228.494H445.778V229.586C446.03 229.194 446.37 228.891 446.8 228.676C447.238 228.462 447.719 228.354 448.242 228.354ZM458.745 229.544V234.066C458.745 234.44 458.825 234.706 458.983 234.864C459.142 235.014 459.417 235.088 459.809 235.088H460.747V236.166H459.599C458.89 236.166 458.358 236.003 458.003 235.676C457.649 235.35 457.471 234.813 457.471 234.066V229.544H456.477V228.494H457.471V226.562H458.745V228.494H460.747V229.544H458.745ZM466.099 228.354C466.678 228.354 467.2 228.48 467.667 228.732C468.134 228.975 468.498 229.344 468.759 229.838C469.03 230.333 469.165 230.935 469.165 231.644V236.166H467.905V231.826C467.905 231.061 467.714 230.478 467.331 230.076C466.948 229.666 466.426 229.46 465.763 229.46C465.091 229.46 464.554 229.67 464.153 230.09C463.761 230.51 463.565 231.122 463.565 231.924V236.166H462.291V225.806H463.565V229.586C463.817 229.194 464.162 228.891 464.601 228.676C465.049 228.462 465.548 228.354 466.099 228.354ZM478.246 232.036C478.246 232.279 478.232 232.536 478.204 232.806H472.072C472.119 233.562 472.375 234.155 472.842 234.584C473.318 235.004 473.892 235.214 474.564 235.214C475.115 235.214 475.572 235.088 475.936 234.836C476.309 234.575 476.571 234.23 476.72 233.8H478.092C477.887 234.538 477.476 235.14 476.86 235.606C476.244 236.064 475.479 236.292 474.564 236.292C473.836 236.292 473.183 236.129 472.604 235.802C472.035 235.476 471.587 235.014 471.26 234.416C470.933 233.81 470.77 233.11 470.77 232.316C470.77 231.523 470.929 230.828 471.246 230.23C471.563 229.633 472.007 229.176 472.576 228.858C473.155 228.532 473.817 228.368 474.564 228.368C475.292 228.368 475.936 228.527 476.496 228.844C477.056 229.162 477.485 229.6 477.784 230.16C478.092 230.711 478.246 231.336 478.246 232.036ZM476.93 231.77C476.93 231.285 476.823 230.87 476.608 230.524C476.393 230.17 476.099 229.904 475.726 229.726C475.362 229.54 474.956 229.446 474.508 229.446C473.864 229.446 473.313 229.652 472.856 230.062C472.408 230.473 472.151 231.042 472.086 231.77H476.93ZM486.376 236.292C485.788 236.292 485.261 236.194 484.794 235.998C484.327 235.793 483.959 235.513 483.688 235.158C483.417 234.794 483.268 234.379 483.24 233.912H484.556C484.593 234.295 484.771 234.608 485.088 234.85C485.415 235.093 485.839 235.214 486.362 235.214C486.847 235.214 487.23 235.107 487.51 234.892C487.79 234.678 487.93 234.407 487.93 234.08C487.93 233.744 487.781 233.497 487.482 233.338C487.183 233.17 486.721 233.007 486.096 232.848C485.527 232.699 485.06 232.55 484.696 232.4C484.341 232.242 484.033 232.013 483.772 231.714C483.52 231.406 483.394 231.005 483.394 230.51C483.394 230.118 483.511 229.759 483.744 229.432C483.977 229.106 484.309 228.849 484.738 228.662C485.167 228.466 485.657 228.368 486.208 228.368C487.057 228.368 487.743 228.583 488.266 229.012C488.789 229.442 489.069 230.03 489.106 230.776H487.832C487.804 230.375 487.641 230.053 487.342 229.81C487.053 229.568 486.661 229.446 486.166 229.446C485.709 229.446 485.345 229.544 485.074 229.74C484.803 229.936 484.668 230.193 484.668 230.51C484.668 230.762 484.747 230.972 484.906 231.14C485.074 231.299 485.279 231.43 485.522 231.532C485.774 231.626 486.119 231.733 486.558 231.854C487.109 232.004 487.557 232.153 487.902 232.302C488.247 232.442 488.541 232.657 488.784 232.946C489.036 233.236 489.167 233.614 489.176 234.08C489.176 234.5 489.059 234.878 488.826 235.214C488.593 235.55 488.261 235.816 487.832 236.012C487.412 236.199 486.927 236.292 486.376 236.292ZM497.582 228.494L492.962 239.778H491.646L493.158 236.082L490.064 228.494H491.478L493.886 234.71L496.266 228.494H497.582ZM501.579 236.292C500.991 236.292 500.464 236.194 499.997 235.998C499.53 235.793 499.162 235.513 498.891 235.158C498.62 234.794 498.471 234.379 498.443 233.912H499.759C499.796 234.295 499.974 234.608 500.291 234.85C500.618 235.093 501.042 235.214 501.565 235.214C502.05 235.214 502.433 235.107 502.713 234.892C502.993 234.678 503.133 234.407 503.133 234.08C503.133 233.744 502.984 233.497 502.685 233.338C502.386 233.17 501.924 233.007 501.299 232.848C500.73 232.699 500.263 232.55 499.899 232.4C499.544 232.242 499.236 232.013 498.975 231.714C498.723 231.406 498.597 231.005 498.597 230.51C498.597 230.118 498.714 229.759 498.947 229.432C499.18 229.106 499.512 228.849 499.941 228.662C500.37 228.466 500.86 228.368 501.411 228.368C502.26 228.368 502.946 228.583 503.469 229.012C503.992 229.442 504.272 230.03 504.309 230.776H503.035C503.007 230.375 502.844 230.053 502.545 229.81C502.256 229.568 501.864 229.446 501.369 229.446C500.912 229.446 500.548 229.544 500.277 229.74C500.006 229.936 499.871 230.193 499.871 230.51C499.871 230.762 499.95 230.972 500.109 231.14C500.277 231.299 500.482 231.43 500.725 231.532C500.977 231.626 501.322 231.733 501.761 231.854C502.312 232.004 502.76 232.153 503.105 232.302C503.45 232.442 503.744 232.657 503.987 232.946C504.239 233.236 504.37 233.614 504.379 234.08C504.379 234.5 504.262 234.878 504.029 235.214C503.796 235.55 503.464 235.816 503.035 236.012C502.615 236.199 502.13 236.292 501.579 236.292ZM507.732 229.544V234.066C507.732 234.44 507.811 234.706 507.97 234.864C508.128 235.014 508.404 235.088 508.796 235.088H509.734V236.166H508.586C507.876 236.166 507.344 236.003 506.99 235.676C506.635 235.35 506.458 234.813 506.458 234.066V229.544H505.464V228.494H506.458V226.562H507.732V228.494H509.734V229.544H507.732ZM518.277 232.036C518.277 232.279 518.263 232.536 518.235 232.806H512.103C512.15 233.562 512.407 234.155 512.873 234.584C513.349 235.004 513.923 235.214 514.595 235.214C515.146 235.214 515.603 235.088 515.967 234.836C516.341 234.575 516.602 234.23 516.751 233.8H518.123C517.918 234.538 517.507 235.14 516.891 235.606C516.275 236.064 515.51 236.292 514.595 236.292C513.867 236.292 513.214 236.129 512.635 235.802C512.066 235.476 511.618 235.014 511.291 234.416C510.965 233.81 510.801 233.11 510.801 232.316C510.801 231.523 510.96 230.828 511.277 230.23C511.595 229.633 512.038 229.176 512.607 228.858C513.186 228.532 513.849 228.368 514.595 228.368C515.323 228.368 515.967 228.527 516.527 228.844C517.087 229.162 517.517 229.6 517.815 230.16C518.123 230.711 518.277 231.336 518.277 232.036ZM516.961 231.77C516.961 231.285 516.854 230.87 516.639 230.524C516.425 230.17 516.131 229.904 515.757 229.726C515.393 229.54 514.987 229.446 514.539 229.446C513.895 229.446 513.345 229.652 512.887 230.062C512.439 230.473 512.183 231.042 512.117 231.77H516.961ZM529.185 228.354C529.782 228.354 530.314 228.48 530.781 228.732C531.248 228.975 531.616 229.344 531.887 229.838C532.158 230.333 532.293 230.935 532.293 231.644V236.166H531.033V231.826C531.033 231.061 530.842 230.478 530.459 230.076C530.086 229.666 529.577 229.46 528.933 229.46C528.27 229.46 527.743 229.675 527.351 230.104C526.959 230.524 526.763 231.136 526.763 231.938V236.166H525.503V231.826C525.503 231.061 525.312 230.478 524.929 230.076C524.556 229.666 524.047 229.46 523.403 229.46C522.74 229.46 522.213 229.675 521.821 230.104C521.429 230.524 521.233 231.136 521.233 231.938V236.166H519.959V228.494H521.233V229.6C521.485 229.199 521.821 228.891 522.241 228.676C522.67 228.462 523.142 228.354 523.655 228.354C524.299 228.354 524.868 228.499 525.363 228.788C525.858 229.078 526.226 229.502 526.469 230.062C526.684 229.521 527.038 229.101 527.533 228.802C528.028 228.504 528.578 228.354 529.185 228.354Z" fill="#CACCCC"/>
<defs>
<filter id="filter0_dd_0_9050" x="262.364" y="31.3487" width="181.273" height="188.273" filterUnits="userSpaceOnUse" color-interpolation-filters="sRGB">
<feFlood flood-opacity="0" result="BackgroundImageFix"/>
<feColorMatrix in="SourceAlpha" type="matrix" values="0 0 0 0 0 0 0 0 0 0 0 0 0 0 0 0 0 0 127 0" result="hardAlpha"/>
<feMorphology radius="8.72727" operator="erode" in="SourceAlpha" result="effect1_dropShadow_0_9050"/>
<feOffset dy="17.4545"/>
<feGaussianBlur stdDeviation="8.72727"/>
<feColorMatrix type="matrix" values="0 0 0 0 0.0627451 0 0 0 0 0.0941176 0 0 0 0 0.156863 0 0 0 0.03 0"/>
<feBlend mode="normal" in2="BackgroundImageFix" result="effect1_dropShadow_0_9050"/>
<feColorMatrix in="SourceAlpha" type="matrix" values="0 0 0 0 0 0 0 0 0 0 0 0 0 0 0 0 0 0 127 0" result="hardAlpha"/>
<feMorphology radius="8.72727" operator="erode" in="SourceAlpha" result="effect2_dropShadow_0_9050"/>
<feOffset dy="43.6364"/>
<feGaussianBlur stdDeviation="26.1818"/>
<feColorMatrix type="matrix" values="0 0 0 0 0.0627451 0 0 0 0 0.0941176 0 0 0 0 0.156863 0 0 0 0.08 0"/>
<feBlend mode="normal" in2="effect1_dropShadow_0_9050" result="effect2_dropShadow_0_9050"/>
<feBlend mode="normal" in="SourceGraphic" in2="effect2_dropShadow_0_9050" result="shape"/>
</filter>
<filter id="filter1_b_0_9050" x="313.422" y="94.7035" width="85.4325" height="86.0562" filterUnits="userSpaceOnUse" color-interpolation-filters="sRGB">
<feFlood flood-opacity="0" result="BackgroundImageFix"/>
<feGaussianBlur in="BackgroundImageFix" stdDeviation="8.72727"/>
<feComposite in2="SourceAlpha" operator="in" result="effect1_backgroundBlur_0_9050"/>
<feBlend mode="normal" in="SourceGraphic" in2="effect1_backgroundBlur_0_9050" result="shape"/>
</filter>
<linearGradient id="paint0_linear_0_9050" x1="353.139" y1="169.166" x2="353.139" y2="23.8336" gradientUnits="userSpaceOnUse">
<stop stop-color="#00B59C"/>
<stop offset="1" stop-color="#9CFFAC"/>
</linearGradient>
<linearGradient id="paint1_linear_0_9050" x1="276.418" y1="49.4072" x2="276.418" y2="34.4373" gradientUnits="userSpaceOnUse">
<stop stop-color="#00B59C"/>
<stop offset="1" stop-color="#9CFFAC"/>
</linearGradient>
<linearGradient id="paint2_linear_0_9050" x1="433.29" y1="143.593" x2="433.29" y2="132.989" gradientUnits="userSpaceOnUse">
<stop stop-color="#00B59C"/>
<stop offset="1" stop-color="#9CFFAC"/>
</linearGradient>
<linearGradient id="paint3_linear_0_9050" x1="275.794" y1="158.563" x2="275.794" y2="140.474" gradientUnits="userSpaceOnUse">
<stop stop-color="#00B59C"/>
<stop offset="1" stop-color="#9CFFAC"/>
</linearGradient>
<linearGradient id="paint4_linear_0_9050" x1="444.206" y1="74.357" x2="444.206" y2="56.2684" gradientUnits="userSpaceOnUse">
<stop stop-color="#00B59C"/>
<stop offset="1" stop-color="#9CFFAC"/>
</linearGradient>
<linearGradient id="paint5_linear_0_9050" x1="426.741" y1="40.051" x2="426.741" y2="27.5761" gradientUnits="userSpaceOnUse">
<stop stop-color="#00B59C"/>
<stop offset="1" stop-color="#9CFFAC"/>
</linearGradient>
<linearGradient id="paint6_linear_0_9050" x1="256.65" y1="190.886" x2="425.298" y2="53.2595" gradientUnits="userSpaceOnUse">
<stop stop-color="#0A3D38"/>
<stop offset="0.580956" stop-color="#030F0E"/>
<stop offset="1" stop-color="#051E1C"/>
</linearGradient>
<linearGradient id="paint7_linear_0_9050" x1="329.5" y1="132.313" x2="329.5" y2="51.6377" gradientUnits="userSpaceOnUse">
<stop stop-color="#00B59C"/>
<stop offset="1" stop-color="#9CFFAC"/>
</linearGradient>
<linearGradient id="paint8_linear_0_9050" x1="376.386" y1="132.349" x2="376.386" y2="51.831" gradientUnits="userSpaceOnUse">
<stop stop-color="#00B59C"/>
<stop offset="1" stop-color="#9CFFAC"/>
</linearGradient>
<linearGradient id="paint9_linear_0_9050" x1="353" y1="71.7341" x2="353" y2="31.3487" gradientUnits="userSpaceOnUse">
<stop stop-color="#00B59C"/>
<stop offset="1" stop-color="#9CFFAC"/>
</linearGradient>
<linearGradient id="paint10_linear_0_9050" x1="353.89" y1="79.2449" x2="353.89" y2="38.9826" gradientUnits="userSpaceOnUse">
<stop stop-color="#00B59C"/>
<stop offset="1" stop-color="#9CFFAC"/>
</linearGradient>
<linearGradient id="paint11_linear_0_9050" x1="356.5" y1="149.834" x2="356.5" y2="124.834" gradientUnits="userSpaceOnUse">
<stop stop-color="#00B59C"/>
<stop offset="1" stop-color="#9CFFAC"/>
</linearGradient>
</defs>
</svg>
