<svg width="28" height="28" viewBox="0 0 28 28" fill="none" xmlns="http://www.w3.org/2000/svg">
<g id="Icons">
<path id="Vector" d="M18.4951 8.079L16.9953 8.07719L16.9984 5.51081C16.9987 5.23471 16.7752 5.0106 16.4991 5.01026C16.223 5.00993 15.9988 5.2335 15.9985 5.5096L15.9954 8.07598L10.996 8.06995L10.9991 5.50357C10.9994 5.22746 10.7758 5.00335 10.4997 5.00302C10.2236 5.00269 9.99951 5.22626 9.99917 5.50236L9.99607 8.06874L8.49624 8.06693C8.22027 8.0666 7.99603 8.2903 7.99569 8.56627L7.99328 10.566C7.99295 10.842 8.21665 11.0663 8.49262 11.0666L8.99256 11.0672L8.98955 13.5669C8.98674 15.8877 10.7502 17.8056 13.0087 18.0463L13.0088 18.0463C13.2441 20.3052 15.1577 22.0734 17.4783 22.0762C17.7544 22.0766 17.9786 21.853 17.9789 21.5769C17.9792 21.3008 17.7556 21.0767 17.4795 21.0764C15.7087 21.0742 14.2427 19.7504 14.0151 18.0412L14.0153 18.0412C16.247 17.7802 17.9858 15.8789 17.9885 13.5778L17.9916 11.0781L18.4915 11.0787C18.7675 11.079 18.9917 10.8553 18.9921 10.5793L18.9945 8.57955C18.9948 8.30358 18.7711 8.07934 18.4951 8.079ZM14.8421 13.9276L13.841 14.9263C13.3769 15.3894 12.6658 14.6862 13.1346 14.2182L13.6449 13.7095L12.2662 13.0183C11.9617 12.8653 11.8959 12.4582 12.1372 12.2172L13.1383 11.2185C13.6061 10.7518 14.3132 11.4589 13.8447 11.9266L13.3344 12.4353L14.7131 13.1265C15.0176 13.2796 15.0834 13.6866 14.8421 13.9276Z" fill="#C35A5A"/>
</g>
</svg>
