<svg width="24" height="24" viewBox="0 0 24 24" fill="none" xmlns="http://www.w3.org/2000/svg">
<path d="M13.704 13.4845C13.704 13.7396 13.6402 13.9794 13.5126 14.2039C13.3902 14.4284 13.2065 14.6172 12.9616 14.7702C12.7219 14.9233 12.4361 15.0151 12.1045 15.0457V15.6656H11.6071V15.0457C11.1275 14.9998 10.7398 14.8493 10.4439 14.5942C10.148 14.3391 10 14.0024 10 13.584H10.9336C10.9489 13.783 11.0127 13.9488 11.125 14.0815C11.2372 14.209 11.3979 14.2906 11.6071 14.3264V12.6427C11.2653 12.556 10.9872 12.4693 10.7729 12.3825C10.5587 12.2907 10.375 12.1479 10.2219 11.954C10.074 11.7601 10 11.4948 10 11.1581C10 10.7346 10.148 10.3852 10.4439 10.1097C10.7398 9.82905 11.1275 9.66579 11.6071 9.61988V9H12.1045V9.61988C12.5535 9.66069 12.9132 9.80355 13.1836 10.0484C13.4591 10.2882 13.6147 10.6198 13.6504 11.0433H12.7167C12.7014 10.8851 12.6402 10.7448 12.5331 10.6224C12.4259 10.4948 12.2831 10.4081 12.1045 10.3622V12.0152C12.4463 12.0968 12.7244 12.1836 12.9387 12.2754C13.153 12.3621 13.3341 12.5024 13.482 12.6963C13.63 12.8851 13.704 13.1478 13.704 13.4845ZM10.8877 11.1122C10.8877 11.3214 10.9489 11.4846 11.0714 11.602C11.1989 11.7193 11.3775 11.8137 11.6071 11.8851V10.3392C11.3877 10.3648 11.2117 10.4438 11.079 10.5765C10.9515 10.7091 10.8877 10.8877 10.8877 11.1122ZM12.1045 14.3264C12.329 14.2906 12.505 14.2014 12.6326 14.0585C12.7601 13.9106 12.8239 13.7345 12.8239 13.5305C12.8239 13.3264 12.7601 13.1682 12.6326 13.056C12.5101 12.9386 12.3341 12.8443 12.1045 12.7728V14.3264Z" fill="#EE2B65"/>
<path d="M18.8463 10.4156C18.671 9.65491 18.3744 8.93848 17.9614 8.27881L18.5562 7.28687L16.7131 5.44385L15.7212 6.03857C15.0615 5.62561 14.3451 5.32898 13.5844 5.15369L13.3037 4H10.6963L10.4156 5.15369C9.65491 5.32898 8.93848 5.62561 8.27881 6.03857L7.28687 5.44385L5.44385 7.28687L6.03857 8.27881C5.62561 8.93848 5.32898 9.65491 5.15369 10.4156L4 10.6963V13.3037L5.15369 13.5844C5.32898 14.3451 5.62561 15.0615 6.03857 15.7212L5.44385 16.7131L7.28687 18.5562L8.27881 17.9614C8.93848 18.3744 9.65491 18.671 10.4156 18.8463L10.6963 20H13.3037L13.5844 18.8463C14.3451 18.671 15.0615 18.3744 15.7212 17.9614L16.7131 18.5562L18.5562 16.7131L17.9614 15.7212C18.3744 15.0615 18.671 14.3451 18.8463 13.5844L20 13.3037V10.6963L18.8463 10.4156ZM12 17.1562C9.15686 17.1562 6.84375 14.8431 6.84375 12C6.84375 9.15686 9.15686 6.84375 12 6.84375C14.8431 6.84375 17.1562 9.15686 17.1562 12C17.1562 14.8431 14.8431 17.1562 12 17.1562Z" fill="#EE2B65"/>
</svg>
