<svg width="28" height="28" viewBox="0 0 28 28" fill="none" xmlns="http://www.w3.org/2000/svg">
<g id="Icons">
<path id="Vector" d="M20.981 11.9235C20.8373 11.636 20.5436 11.4544 20.2222 11.4544C19.9008 11.4544 19.607 11.636 19.4632 11.9235L16.9253 16.9993L13.6595 8.6015C13.5361 8.28422 13.2351 8.07142 12.8948 8.0609C12.555 8.05112 12.2409 8.24434 12.0983 8.55341L8.93188 15.414H5.51523C5.04658 15.414 4.66675 15.7939 4.66675 16.2625C4.66675 16.731 5.04658 17.1109 5.51523 17.1109H9.47479C9.80569 17.1109 10.1065 16.9185 10.2451 16.618L12.8019 11.0783L16.0374 19.3982C16.159 19.711 16.4536 19.9227 16.7889 19.9382C16.802 19.9389 16.8153 19.9392 16.8284 19.9392C17.1485 19.9392 17.4429 19.7585 17.5871 19.4702L20.2222 14.2001L21.7258 17.2075C21.9354 17.6267 22.4451 17.7966 22.8642 17.587C23.2833 17.3774 23.4532 16.8678 23.2437 16.4487L20.981 11.9235Z" fill="#C37C5A"/>
</g>
</svg>
