<svg width="12" height="16" viewBox="0 0 12 16" fill="none" xmlns="http://www.w3.org/2000/svg">
<g id="Group">
<g id="Group_2">
<path id="Vector" d="M8.33231 6.84101C9.33787 5.92422 10.6977 4.68432 10.8217 1.72217H11.7195V0.833496H0.166748V1.72217H1.06457C1.18851 4.68432 2.54836 5.92422 3.55392 6.84101C4.22845 7.456 4.61011 7.83241 4.61011 8.41683C4.61011 9.00125 4.22845 9.37766 3.55392 9.99265C2.54836 10.9094 1.18851 12.1493 1.06457 15.1115H0.166748V16.0002H11.7195V15.1115H10.8217C10.6977 12.1493 9.33787 10.9094 8.33231 9.99265C7.65778 9.37766 7.27612 9.00125 7.27612 8.41683C7.27612 7.83241 7.65778 7.456 8.33231 6.84101ZM5.49878 11.7475C5.36154 11.7758 5.22596 11.817 5.09363 11.8718L2.37202 12.998C2.81647 11.8679 3.53233 11.2149 4.15265 10.6494C4.84492 10.0182 5.49878 9.42206 5.49878 8.41683V11.7475ZM7.73358 10.6494C8.3539 11.2149 9.06973 11.8679 9.51421 12.998L6.7926 11.8717C6.66027 11.817 6.52469 11.7758 6.38745 11.7475V8.41683C6.38745 9.42206 7.04131 10.0182 7.73358 10.6494ZM2.35641 3.79574C2.14155 3.2359 1.99318 2.55995 1.95434 1.72217H9.93186C9.89302 2.55995 9.74467 3.2359 9.52979 3.79574H2.35641Z" fill="#C2ECC7"/>
</g>
</g>
</svg>
