<svg width="37" height="36" viewBox="0 0 37 36" fill="none" xmlns="http://www.w3.org/2000/svg">
<path d="M28.7969 26.2209L19.9283 8.48373C19.6157 7.8586 19.1303 7.5 18.5966 7.5C18.0631 7.5 17.5777 7.8586 17.2651 8.48373L8.39636 26.2209C8.09446 26.8248 8.09042 27.4446 8.38522 27.9216C8.68001 28.3986 9.23633 28.6723 9.91153 28.6723H27.2818C27.9571 28.6723 28.5134 28.3986 28.8082 27.9216C29.103 27.4446 29.0989 26.8247 28.7969 26.2209ZM21.7054 20.4149L15.6152 25.1212C15.5031 25.2078 15.3694 25.2507 15.2359 25.2507C15.0872 25.2507 14.9387 25.1973 14.8211 25.0916C14.5984 24.8913 14.5506 24.5603 14.7076 24.3053L16.3405 21.6518H14.4055C14.1401 21.6518 13.9041 21.483 13.8185 21.232C13.7327 20.981 13.8162 20.703 14.0262 20.5408L20.1165 15.8346C20.3534 15.6514 20.6876 15.6638 20.9104 15.8641C21.1331 16.0644 21.181 16.3954 21.0239 16.6504L19.3912 19.3041L21.3262 19.3039C21.5916 19.3039 21.8276 19.4727 21.9132 19.7237C21.999 19.9749 21.9154 20.2528 21.7054 20.4149Z" fill="#FFBB38"/>
</svg>
