<svg width="28" height="28" viewBox="0 0 28 28" fill="none" xmlns="http://www.w3.org/2000/svg">
<path d="M16.3321 11.841C17.3376 10.9242 18.6975 9.68432 18.8214 6.72217H19.7192V5.8335H8.1665V6.72217H9.06433C9.18827 9.68432 10.5481 10.9242 11.5537 11.841C12.2282 12.456 12.6099 12.8324 12.6099 13.4168C12.6099 14.0012 12.2282 14.3777 11.5537 14.9927C10.5481 15.9094 9.18827 17.1493 9.06433 20.1115H8.1665V21.0002H19.7192V20.1115H18.8214C18.6975 17.1493 17.3376 15.9094 16.3321 14.9927C15.6575 14.3777 15.2759 14.0012 15.2759 13.4168C15.2759 12.8324 15.6575 12.456 16.3321 11.841ZM13.4985 16.7475C13.3613 16.7758 13.2257 16.817 13.0934 16.8718L10.3718 17.998C10.8162 16.8679 11.5321 16.2149 12.1524 15.6494C12.8447 15.0182 13.4985 14.4221 13.4985 13.4168V16.7475ZM15.7333 15.6494C16.3537 16.2149 17.0695 16.8679 17.514 17.998L14.7924 16.8717C14.66 16.817 14.5244 16.7758 14.3872 16.7475V13.4168C14.3872 14.4221 15.0411 15.0182 15.7333 15.6494ZM10.3562 8.79574C10.1413 8.2359 9.99293 7.55995 9.9541 6.72217H17.9316C17.8928 7.55995 17.7444 8.2359 17.5295 8.79574H10.3562Z" fill="#6FC35A"/>
</svg>
