<svg width="28" height="28" viewBox="0 0 28 28" fill="none" xmlns="http://www.w3.org/2000/svg">
<path d="M20.9808 11.9235C20.8371 11.636 20.5433 11.4544 20.2219 11.4544C19.9005 11.4544 19.6067 11.636 19.463 11.9235L16.925 16.9993L13.6592 8.6015C13.5359 8.28422 13.2348 8.07142 12.8945 8.0609C12.5548 8.05112 12.2407 8.24434 12.0981 8.55341L8.93163 15.414H5.51498C5.04634 15.414 4.6665 15.7939 4.6665 16.2625C4.6665 16.731 5.04634 17.1109 5.51498 17.1109H9.47454C9.80545 17.1109 10.1062 16.9185 10.2449 16.618L12.8017 11.0783L16.0372 19.3982C16.1588 19.711 16.4533 19.9227 16.7886 19.9382C16.8018 19.9389 16.815 19.9392 16.8281 19.9392C17.1482 19.9392 17.4427 19.7585 17.5868 19.4702L20.2219 14.2001L21.7256 17.2075C21.9351 17.6267 22.4449 17.7966 22.8639 17.587C23.2831 17.3774 23.453 16.8678 23.2434 16.4487L20.9808 11.9235Z" fill="#5C5AC3"/>
</svg>
