<svg width="28" height="28" viewBox="0 0 28 28" fill="none" xmlns="http://www.w3.org/2000/svg">
<path d="M5.83789 21.7047H9.41938L10.3762 20.7479H17.6282L18.5849 21.7047H22.1664V18.8345H5.83789V21.7047Z" fill="#C3B95A"/>
<path d="M14.0022 11.1807C12.6819 11.1807 11.6104 12.2522 11.6104 13.5725C11.6104 14.8927 12.6819 15.9643 14.0022 15.9643C15.3224 15.9643 16.3941 14.8927 16.3941 13.5725C16.3941 12.2522 15.3224 11.1807 14.0022 11.1807ZM14.4518 15.1607L13.5526 14.8545L13.8204 14.0509H12.8637L13.5526 11.9843L14.4518 12.2905L14.184 13.0941H15.1408L14.4518 15.1607Z" fill="#C3B95A"/>
<path d="M5.83789 9.26709V17.8778H22.1664V9.26709H5.83789ZM14.0021 16.921C12.1556 16.921 10.6535 15.419 10.6535 13.5725C10.6535 11.7259 12.1556 10.2239 14.0021 10.2239C15.8486 10.2239 17.3507 11.7259 17.3507 13.5725C17.3507 15.419 15.8486 16.921 14.0021 16.921Z" fill="#C3B95A"/>
<path d="M6.82695 8.3104H10.6539V7.35375H11.6107V6.39697C11.4716 6.39697 5.64338 6.39697 5.83828 6.39697V7.35375H6.82695V8.3104Z" fill="#C3B95A"/>
</svg>
