<svg width="28" height="28" viewBox="0 0 28 28" fill="none" xmlns="http://www.w3.org/2000/svg">
<path d="M21.9872 12.1514C21.7827 11.2639 21.4366 10.4281 20.9548 9.65845L21.6487 8.50118L19.4985 6.35099L18.3412 7.04484C17.5716 6.56305 16.7358 6.21698 15.8482 6.01247L15.5208 4.6665H12.4788L12.1514 6.01247C11.2639 6.21698 10.4281 6.56305 9.65845 7.04484L8.50118 6.35099L6.35099 8.50118L7.04484 9.65845C6.56305 10.4281 6.21698 11.2639 6.01247 12.1514L4.6665 12.4788V15.5208L6.01247 15.8482C6.21698 16.7358 6.56305 17.5716 7.04484 18.3412L6.35099 19.4985L8.50118 21.6487L9.65845 20.9548C10.4281 21.4366 11.2639 21.7827 12.1514 21.9872L12.4788 23.3332H15.5208L15.8482 21.9872C16.7358 21.7827 17.5716 21.4366 18.3412 20.9548L19.4985 21.6487L21.6487 19.4985L20.9548 18.3412C21.4366 17.5716 21.7827 16.7358 21.9872 15.8482L23.3332 15.5208V12.4788L21.9872 12.1514ZM13.9998 20.0155C10.6828 20.0155 7.98421 17.3168 7.98421 13.9998C7.98421 10.6828 10.6828 7.98421 13.9998 7.98421C17.3168 7.98421 20.0155 10.6828 20.0155 13.9998C20.0155 17.3168 17.3168 20.0155 13.9998 20.0155Z" fill="#87BDEF"/>
<path d="M14.5469 9.11182L10.2515 15.6407H13.4531V18.8883L17.7485 12.3595H14.5469V9.11182Z" fill="#87BDEF"/>
</svg>
