<svg width="28" height="28" viewBox="0 0 28 28" fill="none" xmlns="http://www.w3.org/2000/svg">
<path d="M5.76025 13.9998C5.76025 9.45651 9.45651 5.76025 13.9998 5.76025C15.5338 5.76025 16.971 6.182 18.2022 6.91507C18.3087 6.66872 18.4618 6.43787 18.6628 6.23684C18.7327 6.16684 18.8069 6.10267 18.8842 6.0435C17.4296 5.14659 15.7518 4.6665 13.9998 4.6665C11.5068 4.6665 9.16302 5.63735 7.40015 7.40015C5.63735 9.16302 4.6665 11.5068 4.6665 13.9998C4.6665 15.7519 5.14666 17.4298 6.04364 18.8846C6.10245 18.8075 6.16647 18.7332 6.23684 18.6628C6.4351 18.4645 6.66486 18.3095 6.91456 18.2011C6.18179 16.9702 5.76025 15.5334 5.76025 13.9998Z" fill="#A85AC3"/>
<path d="M20.2131 8.88505C20.4941 8.88505 20.7752 8.77783 20.9897 8.56338C21.4186 8.13445 21.4186 7.43904 20.9897 7.01015C20.7752 6.7957 20.4941 6.68848 20.2131 6.68848C19.932 6.68848 19.6509 6.7957 19.4364 7.01015C19.0075 7.43904 19.0075 8.13449 19.4364 8.56338C19.6509 8.77783 19.932 8.88505 20.2131 8.88505Z" fill="#A85AC3"/>
<path d="M21.9559 9.11523C21.8971 9.19227 21.8331 9.26661 21.7627 9.33697C21.5645 9.5352 21.3347 9.69026 21.0851 9.79857C21.8178 11.0296 22.2393 12.4663 22.2393 13.9999C22.2393 18.5433 18.543 22.2395 13.9997 22.2395C12.4657 22.2395 11.0285 21.8178 9.79741 21.0846C9.69095 21.331 9.53782 21.5619 9.33676 21.7629C9.26676 21.8329 9.19256 21.8971 9.11523 21.9563C10.5699 22.8532 12.2478 23.3333 13.9997 23.3333C16.4927 23.3333 18.8365 22.3624 20.5994 20.5996C22.3622 18.8367 23.333 16.4929 23.333 13.9999C23.333 12.2479 22.8529 10.57 21.9559 9.11523Z" fill="#A85AC3"/>
<path d="M7.78681 19.1147C7.50572 19.1147 7.22466 19.222 7.01018 19.4364C6.58124 19.8654 6.58124 20.5608 7.01018 20.9897C7.22462 21.2041 7.50572 21.3113 7.78681 21.3113C8.0679 21.3113 8.34896 21.2041 8.56345 20.9897C8.99238 20.5608 8.99238 19.8653 8.56345 19.4364C8.349 19.222 8.0679 19.1147 7.78681 19.1147Z" fill="#A85AC3"/>
<path d="M14.4555 19.4901L17.7684 13.623L17.5177 13.0232L14.5468 12.2162V8.50977H13.5443L10.2314 14.3768L10.4821 14.9766L13.453 15.7836V19.4901H14.4555Z" fill="#A85AC3"/>
</svg>
