<svg width="37" height="36" viewBox="0 0 37 36" fill="none" xmlns="http://www.w3.org/2000/svg">
<path d="M28.4634 26.2209L19.5948 8.48373C19.2822 7.8586 18.7968 7.5 18.2631 7.5C17.7296 7.5 17.2442 7.8586 16.9316 8.48373L8.06287 26.2209C7.76096 26.8248 7.75693 27.4446 8.05172 27.9216C8.34652 28.3986 8.90283 28.6723 9.57803 28.6723H26.9484C27.6236 28.6723 28.1799 28.3986 28.4747 27.9216C28.7695 27.4446 28.7654 26.8247 28.4634 26.2209ZM21.372 20.4149L15.2817 25.1212C15.1696 25.2078 15.0359 25.2507 14.9024 25.2507C14.7537 25.2507 14.6052 25.1973 14.4876 25.0916C14.2649 24.8913 14.2171 24.5603 14.3741 24.3053L16.007 21.6518H14.072C13.8066 21.6518 13.5706 21.483 13.485 21.232C13.3992 20.981 13.4827 20.703 13.6927 20.5408L19.783 15.8346C20.0199 15.6514 20.3541 15.6638 20.5769 15.8641C20.7996 16.0644 20.8475 16.3954 20.6904 16.6504L19.0577 19.3041L20.9927 19.3039C21.2581 19.3039 21.4941 19.4727 21.5797 19.7237C21.6655 19.9749 21.5819 20.2528 21.372 20.4149Z" fill="#38FFAB"/>
</svg>
