<svg width="36" height="36" viewBox="0 0 36 36" fill="none" xmlns="http://www.w3.org/2000/svg">
<path d="M28.1299 26.2209L19.2613 8.48373C18.9487 7.8586 18.4633 7.5 17.9296 7.5C17.3961 7.5 16.9107 7.8586 16.5981 8.48373L7.72937 26.2209C7.42747 26.8248 7.42343 27.4446 7.71823 27.9216C8.01302 28.3986 8.56934 28.6723 9.24454 28.6723H26.6149C27.2901 28.6723 27.8464 28.3986 28.1412 27.9216C28.436 27.4446 28.4319 26.8247 28.1299 26.2209ZM21.0385 20.4149L14.9482 25.1212C14.8361 25.2078 14.7024 25.2507 14.5689 25.2507C14.4202 25.2507 14.2717 25.1973 14.1541 25.0916C13.9314 24.8913 13.8836 24.5603 14.0406 24.3053L15.6735 21.6518H13.7385C13.4731 21.6518 13.2371 21.483 13.1515 21.232C13.0657 20.981 13.1492 20.703 13.3592 20.5408L19.4495 15.8346C19.6864 15.6514 20.0206 15.6638 20.2434 15.8641C20.4661 16.0644 20.514 16.3954 20.357 16.6504L18.7242 19.3041L20.6592 19.3039C20.9246 19.3039 21.1606 19.4727 21.2462 19.7237C21.332 19.9749 21.2484 20.2528 21.0385 20.4149Z" fill="#38C3FF"/>
</svg>
