<svg width="28" height="28" viewBox="0 0 28 28" fill="none" xmlns="http://www.w3.org/2000/svg">
<path d="M18.1138 13.1745H18.1298C19.9032 13.1662 21.3433 11.7206 21.3433 9.94498C21.3433 8.97011 20.816 8.16905 20.1778 7.29815L18.1138 4.66699L16.0498 7.29815C15.4117 8.16898 14.8843 8.97 14.8843 9.94495C14.8843 11.7257 16.3331 13.1745 18.1138 13.1745Z" fill="#EB5757"/>
<path d="M18.1142 14.2679L18.0949 14.2678C15.7196 14.2577 13.7905 12.3222 13.7905 9.94461C13.7905 9.35547 13.9237 8.82879 14.1363 8.33685L12.9369 6.80762L8.71114 12.1946L8.70043 12.2088C7.62318 13.678 6.65625 15.154 6.65625 17.0526C6.65625 20.5076 9.46028 23.3199 12.9121 23.3332L12.9377 23.3334C16.4005 23.3334 19.2176 20.5159 19.2176 17.0527C19.2176 16.0153 18.9287 15.1042 18.491 14.2513C18.3668 14.2621 18.2412 14.2679 18.1142 14.2679Z" fill="#EB5757"/>
</svg>
