<svg width="24" height="24" viewBox="0 0 24 24" fill="none" xmlns="http://www.w3.org/2000/svg">
<path fill-rule="evenodd" clip-rule="evenodd" d="M12 0C5.37712 0 0 5.37712 0 12C0 18.6229 5.37712 24 12 24C18.6229 24 24 18.6229 24 12C24 5.37712 18.6229 0 12 0ZM14.4949 4.90828C14.5719 4.52316 14.371 4.13693 14.0115 3.97842C13.6532 3.81991 13.2313 3.93265 12.9991 4.24856L6.85954 12.6207C6.67312 12.8752 6.64521 13.2134 6.78809 13.4947C6.93098 13.776 7.21898 13.9535 7.53488 13.9535H10.4383L9.50177 19.1062C9.43144 19.4947 9.6413 19.8798 10.0063 20.0294C10.3713 20.1801 10.7922 20.0551 11.0154 19.7302L17.155 10.8C17.3314 10.5433 17.3503 10.2106 17.2063 9.936C17.0612 9.66028 16.7766 9.48837 16.4651 9.48837H13.5795L14.4949 4.90828Z" fill="#EE2B65"/>
</svg>
