<svg width="20" height="20" viewBox="0 0 20 20" fill="none" xmlns="http://www.w3.org/2000/svg">
<g id="Group">
<path id="Vector" d="M1.7605 9.99984C1.7605 5.45651 5.45675 1.76025 10.0001 1.76025C11.5341 1.76025 12.9713 2.182 14.2025 2.91507C14.3089 2.66872 14.462 2.43787 14.663 2.23684C14.733 2.16684 14.8072 2.10267 14.8845 2.0435C13.4298 1.14659 11.752 0.666504 10.0001 0.666504C7.50706 0.666504 5.16326 1.63735 3.40039 3.40015C1.6376 5.16302 0.666748 7.50682 0.666748 9.99984C0.666748 11.7519 1.1469 13.4298 2.04389 14.8846C2.1027 14.8075 2.16672 14.7332 2.23708 14.6628C2.43534 14.4645 2.6651 14.3095 2.91481 14.2011C2.18203 12.9702 1.7605 11.5334 1.7605 9.99984Z" fill="#81D4FA"/>
<path id="Vector_2" d="M16.2131 4.88505C16.4941 4.88505 16.7752 4.77783 16.9897 4.56338C17.4186 4.13445 17.4186 3.43904 16.9897 3.01015C16.7752 2.7957 16.4941 2.68848 16.2131 2.68848C15.932 2.68848 15.6509 2.7957 15.4364 3.01015C15.0075 3.43904 15.0075 4.13449 15.4364 4.56338C15.6509 4.77783 15.932 4.88505 16.2131 4.88505Z" fill="#81D4FA"/>
<path id="Vector_3" d="M17.9563 5.11523C17.8976 5.19227 17.8336 5.26661 17.7632 5.33697C17.565 5.5352 17.3352 5.69026 17.0856 5.79857C17.8183 7.02955 18.2398 8.46634 18.2398 9.99992C18.2398 14.5433 14.5435 18.2395 10.0002 18.2395C8.46617 18.2395 7.02902 17.8178 5.79789 17.0846C5.69144 17.331 5.53831 17.5619 5.33724 17.7629C5.26724 17.8329 5.19305 17.8971 5.11572 17.9563C6.57041 18.8532 8.24826 19.3333 10.0002 19.3333C12.4932 19.3333 14.837 18.3624 16.5999 16.5996C18.3627 14.8367 19.3335 12.4929 19.3335 9.99992C19.3335 8.24788 18.8534 6.56996 17.9563 5.11523Z" fill="#81D4FA"/>
<path id="Vector_4" d="M3.78706 15.1147C3.50596 15.1147 3.2249 15.222 3.01042 15.4364C2.58149 15.8654 2.58149 16.5608 3.01042 16.9897C3.22487 17.2041 3.50596 17.3113 3.78706 17.3113C4.06815 17.3113 4.34921 17.2041 4.56369 16.9897C4.99262 16.5608 4.99262 15.8653 4.56369 15.4364C4.34924 15.222 4.06815 15.1147 3.78706 15.1147Z" fill="#81D4FA"/>
<path id="Vector_5" d="M10.4558 15.4901L13.7687 9.62301L13.518 9.0232L10.547 8.21623V4.50977H9.54455L6.23169 10.3768L6.48234 10.9766L9.45329 11.7836V15.4901H10.4558Z" fill="#81D4FA"/>
</g>
</svg>
