<svg width="22" height="20" viewBox="0 0 22 20" fill="none" xmlns="http://www.w3.org/2000/svg">
<path fill-rule="evenodd" clip-rule="evenodd" d="M10.9998 0.249893C13.7959 0.249893 16.2594 2.04931 17.1477 4.63198C19.7899 4.99056 21.8331 7.26123 21.8331 9.9999C21.8331 11.3226 21.3521 12.5956 20.4789 13.5846C20.2644 13.8262 19.9665 13.9508 19.6664 13.9508C19.4119 13.9508 19.1562 13.862 18.9493 13.68C18.5019 13.2824 18.4585 12.5988 18.855 12.1492C19.3783 11.5577 19.6664 10.7929 19.6664 9.9999C19.6664 8.20806 18.2083 6.74989 16.4164 6.74989H16.3081C15.7924 6.74989 15.3483 6.38589 15.2464 5.87998C14.8413 3.87364 13.0559 2.41656 10.9998 2.41656C8.94469 2.41656 7.15828 3.87364 6.75419 5.87998C6.65236 6.38589 6.20711 6.74989 5.69144 6.74989H5.58311C3.79128 6.74989 2.33311 8.20806 2.33311 9.9999C2.33311 10.7929 2.62128 11.5577 3.14561 12.1492C3.54103 12.5988 3.49878 13.2824 3.05028 13.68C2.60069 14.0765 1.91711 14.0321 1.52169 13.5846C0.647443 12.5956 0.166443 11.3226 0.166443 9.9999C0.166443 7.26123 2.20961 4.99056 4.85186 4.63198C5.74128 2.04931 8.20478 0.249893 10.9998 0.249893ZM12.0835 16.1141L13.4973 14.7491C13.9285 14.3342 14.6142 14.3461 15.0291 14.7762C15.4451 15.2074 15.4332 15.8931 15.0031 16.308L11.7531 19.4464C11.5419 19.6479 11.271 19.7498 11.0002 19.7498C10.7229 19.7498 10.4455 19.6447 10.2343 19.4324L6.98429 16.1824C6.56071 15.7599 6.56071 15.0741 6.98429 14.6505C7.40679 14.228 8.09254 14.228 8.51613 14.6505L9.91688 16.0513V9.99978C9.91688 9.4007 10.4022 8.91645 11.0002 8.91645C11.5982 8.91645 12.0835 9.4007 12.0835 9.99978V16.1141Z" fill="white"/>
</svg>
