<svg width="28" height="28" viewBox="0 0 28 28" fill="none" xmlns="http://www.w3.org/2000/svg">
<g id="Icons">
<path id="Vector" d="M5.83813 21.7047H9.41963L10.3764 20.7479H17.6285L18.5851 21.7047H22.1666V18.8345H5.83813V21.7047Z" fill="#BA9EF5"/>
<path id="Vector_2" d="M14.0024 11.1807C12.6821 11.1807 11.6106 12.2522 11.6106 13.5725C11.6106 14.8927 12.6821 15.9643 14.0024 15.9643C15.3227 15.9643 16.3944 14.8927 16.3944 13.5725C16.3944 12.2522 15.3227 11.1807 14.0024 11.1807ZM14.452 15.1607L13.5528 14.8545L13.8206 14.0509H12.8639L13.5528 11.9843L14.452 12.2905L14.1842 13.0941H15.141L14.452 15.1607Z" fill="#BA9EF5"/>
<path id="Vector_3" d="M5.83813 9.26709V17.8778H22.1666V9.26709H5.83813ZM14.0024 16.921C12.1559 16.921 10.6538 15.419 10.6538 13.5725C10.6538 11.7259 12.1559 10.2239 14.0024 10.2239C15.8489 10.2239 17.351 11.7259 17.351 13.5725C17.351 15.419 15.8489 16.921 14.0024 16.921Z" fill="#BA9EF5"/>
<path id="Vector_4" d="M6.82671 8.3104H10.6537V7.35375H11.6105V6.39697C11.4714 6.39697 5.64314 6.39697 5.83803 6.39697V7.35375H6.82671V8.3104Z" fill="#BA9EF5"/>
</g>
</svg>
