<svg width="27" height="26" viewBox="0 0 27 26" fill="none" xmlns="http://www.w3.org/2000/svg">
<path d="M8.4373 12.9995H1.40208C0.962062 12.9995 0.602051 13.4158 0.602051 13.9246V15.7747C0.602051 16.2835 0.962062 16.6998 1.40208 16.6998H8.5123C9.30733 16.6998 10.0524 17.33 10.1824 18.2377C10.3474 19.394 9.57734 20.4 8.60231 20.4C7.89728 20.4 7.29727 19.8681 7.08226 19.1339C6.97726 18.7696 6.65224 18.5499 6.32223 18.5499H4.68218C4.19217 18.5499 3.79715 19.0587 3.88716 19.6137C4.31717 22.1634 6.26723 24.1003 8.59731 24.1003C11.4524 24.1003 13.7325 21.2037 13.3575 17.8214C13.0525 15.0231 10.8724 12.9995 8.4373 12.9995ZM1.40208 11.1494H18.2026C21.1877 11.1494 23.5428 7.98102 22.8928 4.40217C22.5128 2.30921 21.0477 0.615182 19.2376 0.175776C16.4676 -0.494897 13.9825 1.61541 13.4925 4.54093C13.3975 5.09597 13.7975 5.59898 14.2825 5.59898H15.9225C16.2576 5.59898 16.5776 5.37927 16.6826 5.01503C16.8976 4.28076 17.4976 3.74884 18.2026 3.74884C19.1726 3.74884 19.9477 4.75485 19.7827 5.91119C19.6527 6.81891 18.9126 7.44911 18.1126 7.44911H1.40208C0.962062 7.44911 0.602051 7.86539 0.602051 8.37418V10.2243C0.602051 10.7331 0.962062 11.1494 1.40208 11.1494ZM20.6027 12.9995H12.7874C13.7525 13.9593 14.4475 15.2428 14.7775 16.6998H20.6027C21.9277 16.6998 23.0028 17.9428 23.0028 19.475C23.0028 21.0071 21.9277 22.2502 20.6027 22.2502C19.7077 22.2502 18.9376 21.6778 18.5226 20.8394C18.3776 20.5504 18.0876 20.4 17.7976 20.4H16.1075C15.5625 20.4 15.1575 21.0245 15.3425 21.62C16.2326 24.5455 18.8676 26.5228 21.8127 25.8001C23.8728 25.2971 25.5679 23.3949 26.0479 21.0187C26.9029 16.7865 24.1278 12.9995 20.6027 12.9995Z" fill="#1010BF"/>
</svg>
